<mxfile host="app.diagrams.net" agent="Mozilla/5.0 (Windows NT 10.0; Win64; x64) AppleWebKit/537.36 (KHTML, like Gecko) Chrome/136.0.0.0 Safari/537.36" version="27.0.5">
  <diagram name="Page-1" id="6Nr-SPmM6WJ2EuIhr-W5">
    <mxGraphModel dx="2842" dy="1817" grid="1" gridSize="10" guides="1" tooltips="1" connect="1" arrows="1" fold="1" page="1" pageScale="1" pageWidth="827" pageHeight="1169" math="0" shadow="0">
      <root>
        <mxCell id="0" />
        <mxCell id="1" parent="0" />
        <mxCell id="yooK8LwU4qN5jC1jcqoQ-6" style="edgeStyle=orthogonalEdgeStyle;rounded=0;orthogonalLoop=1;jettySize=auto;html=1;entryX=0;entryY=0.5;entryDx=0;entryDy=0;" edge="1" parent="1" source="yooK8LwU4qN5jC1jcqoQ-1" target="yooK8LwU4qN5jC1jcqoQ-5">
          <mxGeometry relative="1" as="geometry" />
        </mxCell>
        <mxCell id="yooK8LwU4qN5jC1jcqoQ-1" value="Người yêu cầu mua hàng" style="shape=umlActor;verticalLabelPosition=bottom;verticalAlign=top;html=1;outlineConnect=0;" vertex="1" parent="1">
          <mxGeometry x="-798" y="175" width="30" height="60" as="geometry" />
        </mxCell>
        <mxCell id="yooK8LwU4qN5jC1jcqoQ-5" value="Người yêu cầu mua hàng tạo PR cung cấp các thông tin về sản phẩm và họ muốn mua" style="rounded=1;whiteSpace=wrap;html=1;fillColor=#dae8fc;strokeColor=#6c8ebf;" vertex="1" parent="1">
          <mxGeometry x="-680" y="160" width="140" height="89" as="geometry" />
        </mxCell>
        <mxCell id="yooK8LwU4qN5jC1jcqoQ-54" style="edgeStyle=orthogonalEdgeStyle;rounded=0;orthogonalLoop=1;jettySize=auto;html=1;entryX=0;entryY=0.5;entryDx=0;entryDy=0;" edge="1" parent="1" target="yooK8LwU4qN5jC1jcqoQ-52">
          <mxGeometry relative="1" as="geometry">
            <mxPoint x="-390" y="60" as="sourcePoint" />
          </mxGeometry>
        </mxCell>
        <mxCell id="yooK8LwU4qN5jC1jcqoQ-71" style="edgeStyle=orthogonalEdgeStyle;rounded=0;orthogonalLoop=1;jettySize=auto;html=1;entryX=0;entryY=0.5;entryDx=0;entryDy=0;" edge="1" parent="1" source="yooK8LwU4qN5jC1jcqoQ-12" target="yooK8LwU4qN5jC1jcqoQ-66">
          <mxGeometry relative="1" as="geometry" />
        </mxCell>
        <mxCell id="yooK8LwU4qN5jC1jcqoQ-73" style="edgeStyle=orthogonalEdgeStyle;rounded=0;orthogonalLoop=1;jettySize=auto;html=1;entryX=0;entryY=0.5;entryDx=0;entryDy=0;" edge="1" parent="1" source="yooK8LwU4qN5jC1jcqoQ-12" target="yooK8LwU4qN5jC1jcqoQ-72">
          <mxGeometry relative="1" as="geometry" />
        </mxCell>
        <mxCell id="yooK8LwU4qN5jC1jcqoQ-12" value="giám đốc&amp;nbsp; mua hàng" style="shape=umlActor;verticalLabelPosition=bottom;verticalAlign=top;html=1;outlineConnect=0;" vertex="1" parent="1">
          <mxGeometry x="-415" y="20" width="30" height="60" as="geometry" />
        </mxCell>
        <mxCell id="yooK8LwU4qN5jC1jcqoQ-14" value="" style="endArrow=classic;html=1;rounded=0;" edge="1" parent="1">
          <mxGeometry width="50" height="50" relative="1" as="geometry">
            <mxPoint x="-600" y="160" as="sourcePoint" />
            <mxPoint x="-420" y="50" as="targetPoint" />
          </mxGeometry>
        </mxCell>
        <mxCell id="yooK8LwU4qN5jC1jcqoQ-21" value="request" style="edgeLabel;html=1;align=center;verticalAlign=middle;resizable=0;points=[];" vertex="1" connectable="0" parent="yooK8LwU4qN5jC1jcqoQ-14">
          <mxGeometry x="-0.1073" y="1" relative="1" as="geometry">
            <mxPoint as="offset" />
          </mxGeometry>
        </mxCell>
        <mxCell id="yooK8LwU4qN5jC1jcqoQ-18" style="edgeStyle=orthogonalEdgeStyle;rounded=0;orthogonalLoop=1;jettySize=auto;html=1;entryX=0.5;entryY=0;entryDx=0;entryDy=0;" edge="1" parent="1" source="yooK8LwU4qN5jC1jcqoQ-12" target="yooK8LwU4qN5jC1jcqoQ-20">
          <mxGeometry relative="1" as="geometry">
            <mxPoint x="-400" y="150" as="targetPoint" />
          </mxGeometry>
        </mxCell>
        <mxCell id="yooK8LwU4qN5jC1jcqoQ-22" value="response" style="edgeLabel;html=1;align=center;verticalAlign=middle;resizable=0;points=[];" vertex="1" connectable="0" parent="yooK8LwU4qN5jC1jcqoQ-18">
          <mxGeometry x="0.0289" y="-1" relative="1" as="geometry">
            <mxPoint as="offset" />
          </mxGeometry>
        </mxCell>
        <mxCell id="yooK8LwU4qN5jC1jcqoQ-24" style="edgeStyle=orthogonalEdgeStyle;rounded=0;orthogonalLoop=1;jettySize=auto;html=1;entryX=0;entryY=0.5;entryDx=0;entryDy=0;" edge="1" parent="1" source="yooK8LwU4qN5jC1jcqoQ-20" target="yooK8LwU4qN5jC1jcqoQ-28">
          <mxGeometry relative="1" as="geometry">
            <mxPoint x="-230" y="204.25" as="targetPoint" />
          </mxGeometry>
        </mxCell>
        <mxCell id="yooK8LwU4qN5jC1jcqoQ-26" style="edgeStyle=orthogonalEdgeStyle;rounded=0;orthogonalLoop=1;jettySize=auto;html=1;entryX=0.5;entryY=0;entryDx=0;entryDy=0;" edge="1" parent="1" source="yooK8LwU4qN5jC1jcqoQ-20" target="yooK8LwU4qN5jC1jcqoQ-33">
          <mxGeometry relative="1" as="geometry">
            <mxPoint x="-400" y="320" as="targetPoint" />
          </mxGeometry>
        </mxCell>
        <mxCell id="yooK8LwU4qN5jC1jcqoQ-20" value="Xem và đánh giá PR" style="rhombus;whiteSpace=wrap;html=1;fillColor=#fff2cc;strokeColor=#d6b656;" vertex="1" parent="1">
          <mxGeometry x="-465" y="166.5" width="130" height="75.5" as="geometry" />
        </mxCell>
        <mxCell id="yooK8LwU4qN5jC1jcqoQ-25" value="Y" style="text;html=1;align=center;verticalAlign=middle;resizable=0;points=[];autosize=1;strokeColor=none;fillColor=none;" vertex="1" parent="1">
          <mxGeometry x="-305" y="178" width="30" height="30" as="geometry" />
        </mxCell>
        <mxCell id="yooK8LwU4qN5jC1jcqoQ-27" value="N" style="text;html=1;align=center;verticalAlign=middle;resizable=0;points=[];autosize=1;strokeColor=none;fillColor=none;" vertex="1" parent="1">
          <mxGeometry x="-407" y="263" width="30" height="30" as="geometry" />
        </mxCell>
        <mxCell id="yooK8LwU4qN5jC1jcqoQ-29" style="edgeStyle=orthogonalEdgeStyle;rounded=0;orthogonalLoop=1;jettySize=auto;html=1;" edge="1" parent="1">
          <mxGeometry relative="1" as="geometry">
            <mxPoint x="-35" y="310" as="targetPoint" />
            <mxPoint x="-135.29650519031154" y="205.91666666666674" as="sourcePoint" />
          </mxGeometry>
        </mxCell>
        <mxCell id="yooK8LwU4qN5jC1jcqoQ-31" style="edgeStyle=orthogonalEdgeStyle;rounded=0;orthogonalLoop=1;jettySize=auto;html=1;entryX=0.5;entryY=1;entryDx=0;entryDy=0;" edge="1" parent="1" source="yooK8LwU4qN5jC1jcqoQ-28" target="yooK8LwU4qN5jC1jcqoQ-52">
          <mxGeometry relative="1" as="geometry">
            <mxPoint x="-30" y="148" as="targetPoint" />
          </mxGeometry>
        </mxCell>
        <mxCell id="yooK8LwU4qN5jC1jcqoQ-28" value="PR là hợp đồng đơn giá" style="rhombus;whiteSpace=wrap;html=1;fillColor=#fff2cc;strokeColor=#d6b656;" vertex="1" parent="1">
          <mxGeometry x="-255" y="167.75" width="150" height="72.25" as="geometry" />
        </mxCell>
        <mxCell id="yooK8LwU4qN5jC1jcqoQ-30" value="Y" style="text;html=1;align=center;verticalAlign=middle;resizable=0;points=[];autosize=1;strokeColor=none;fillColor=none;" vertex="1" parent="1">
          <mxGeometry x="-69" y="233" width="30" height="30" as="geometry" />
        </mxCell>
        <mxCell id="yooK8LwU4qN5jC1jcqoQ-32" value="N" style="text;html=1;align=center;verticalAlign=middle;resizable=0;points=[];autosize=1;strokeColor=none;fillColor=none;" vertex="1" parent="1">
          <mxGeometry x="-69" y="137.75" width="30" height="30" as="geometry" />
        </mxCell>
        <mxCell id="yooK8LwU4qN5jC1jcqoQ-36" style="edgeStyle=orthogonalEdgeStyle;rounded=0;orthogonalLoop=1;jettySize=auto;html=1;exitX=0;exitY=0.5;exitDx=0;exitDy=0;entryX=1;entryY=0.5;entryDx=0;entryDy=0;" edge="1" parent="1" source="yooK8LwU4qN5jC1jcqoQ-33" target="yooK8LwU4qN5jC1jcqoQ-35">
          <mxGeometry relative="1" as="geometry" />
        </mxCell>
        <mxCell id="yooK8LwU4qN5jC1jcqoQ-33" value="Người dùng có thể xem các loại PR đã tạo nếu trạng thái là reject hoặc overdue thì user có thể edit hoặc xóa PR đó đi" style="rounded=1;whiteSpace=wrap;html=1;fillColor=#dae8fc;strokeColor=#6c8ebf;" vertex="1" parent="1">
          <mxGeometry x="-475" y="335" width="150" height="80" as="geometry" />
        </mxCell>
        <mxCell id="yooK8LwU4qN5jC1jcqoQ-37" style="edgeStyle=orthogonalEdgeStyle;rounded=0;orthogonalLoop=1;jettySize=auto;html=1;entryX=0.5;entryY=1;entryDx=0;entryDy=0;" edge="1" parent="1" source="yooK8LwU4qN5jC1jcqoQ-35" target="yooK8LwU4qN5jC1jcqoQ-5">
          <mxGeometry relative="1" as="geometry" />
        </mxCell>
        <mxCell id="yooK8LwU4qN5jC1jcqoQ-35" value="&amp;nbsp;Tạo lại PR" style="rhombus;whiteSpace=wrap;html=1;fillColor=#fff2cc;strokeColor=#d6b656;" vertex="1" parent="1">
          <mxGeometry x="-665" y="340" width="110" height="70" as="geometry" />
        </mxCell>
        <mxCell id="yooK8LwU4qN5jC1jcqoQ-38" value="Y" style="text;html=1;align=center;verticalAlign=middle;resizable=0;points=[];autosize=1;strokeColor=none;fillColor=none;" vertex="1" parent="1">
          <mxGeometry x="-660" y="330" width="30" height="30" as="geometry" />
        </mxCell>
        <mxCell id="yooK8LwU4qN5jC1jcqoQ-39" value="단가계약품목: hợp đồng đơn giá là loại đơn hàng giá sản phẩm đã được chấp thuận từ trước" style="text;html=1;align=center;verticalAlign=middle;resizable=0;points=[];autosize=1;strokeColor=none;fillColor=none;" vertex="1" parent="1">
          <mxGeometry x="-300" y="-301" width="510" height="30" as="geometry" />
        </mxCell>
        <mxCell id="yooK8LwU4qN5jC1jcqoQ-41" value="Hệ thống sẽ tự động tạo PO" style="ellipse;whiteSpace=wrap;html=1;fillColor=#f8cecc;strokeColor=#b85450;" vertex="1" parent="1">
          <mxGeometry x="-80" y="310" width="90" height="80" as="geometry" />
        </mxCell>
        <mxCell id="yooK8LwU4qN5jC1jcqoQ-61" style="edgeStyle=orthogonalEdgeStyle;rounded=0;orthogonalLoop=1;jettySize=auto;html=1;exitX=0.5;exitY=0;exitDx=0;exitDy=0;exitPerimeter=0;entryX=1;entryY=0.75;entryDx=0;entryDy=0;" edge="1" parent="1" source="yooK8LwU4qN5jC1jcqoQ-43" target="yooK8LwU4qN5jC1jcqoQ-60">
          <mxGeometry relative="1" as="geometry">
            <mxPoint x="30" y="-60" as="targetPoint" />
          </mxGeometry>
        </mxCell>
        <mxCell id="yooK8LwU4qN5jC1jcqoQ-43" value="vendor" style="shape=umlActor;verticalLabelPosition=bottom;verticalAlign=top;html=1;outlineConnect=0;" vertex="1" parent="1">
          <mxGeometry x="302" y="20" width="30" height="60" as="geometry" />
        </mxCell>
        <mxCell id="yooK8LwU4qN5jC1jcqoQ-47" value="" style="endArrow=classic;html=1;rounded=0;exitX=1;exitY=0.5;exitDx=0;exitDy=0;" edge="1" parent="1" source="yooK8LwU4qN5jC1jcqoQ-52">
          <mxGeometry width="50" height="50" relative="1" as="geometry">
            <mxPoint x="75" y="131.62000000000012" as="sourcePoint" />
            <mxPoint x="300" y="60" as="targetPoint" />
          </mxGeometry>
        </mxCell>
        <mxCell id="yooK8LwU4qN5jC1jcqoQ-56" value="Sent" style="edgeLabel;html=1;align=center;verticalAlign=middle;resizable=0;points=[];" vertex="1" connectable="0" parent="yooK8LwU4qN5jC1jcqoQ-47">
          <mxGeometry x="-0.177" relative="1" as="geometry">
            <mxPoint as="offset" />
          </mxGeometry>
        </mxCell>
        <mxCell id="yooK8LwU4qN5jC1jcqoQ-52" value="Tạo RFX" style="rounded=1;whiteSpace=wrap;html=1;fillColor=#dae8fc;strokeColor=#6c8ebf;" vertex="1" parent="1">
          <mxGeometry x="-95" y="30" width="120" height="60" as="geometry" />
        </mxCell>
        <mxCell id="yooK8LwU4qN5jC1jcqoQ-64" style="edgeStyle=orthogonalEdgeStyle;rounded=0;orthogonalLoop=1;jettySize=auto;html=1;entryX=1;entryY=0.5;entryDx=0;entryDy=0;exitX=0.5;exitY=0;exitDx=0;exitDy=0;exitPerimeter=0;" edge="1" parent="1" source="yooK8LwU4qN5jC1jcqoQ-57" target="yooK8LwU4qN5jC1jcqoQ-60">
          <mxGeometry relative="1" as="geometry" />
        </mxCell>
        <mxCell id="yooK8LwU4qN5jC1jcqoQ-57" value="vendor" style="shape=umlActor;verticalLabelPosition=bottom;verticalAlign=top;html=1;outlineConnect=0;" vertex="1" parent="1">
          <mxGeometry x="332" width="30" height="60" as="geometry" />
        </mxCell>
        <mxCell id="yooK8LwU4qN5jC1jcqoQ-65" style="edgeStyle=orthogonalEdgeStyle;rounded=0;orthogonalLoop=1;jettySize=auto;html=1;entryX=1;entryY=0.25;entryDx=0;entryDy=0;exitX=0.5;exitY=0;exitDx=0;exitDy=0;exitPerimeter=0;" edge="1" parent="1" source="yooK8LwU4qN5jC1jcqoQ-59" target="yooK8LwU4qN5jC1jcqoQ-60">
          <mxGeometry relative="1" as="geometry" />
        </mxCell>
        <mxCell id="yooK8LwU4qN5jC1jcqoQ-111" style="edgeStyle=orthogonalEdgeStyle;rounded=0;orthogonalLoop=1;jettySize=auto;html=1;" edge="1" parent="1" source="yooK8LwU4qN5jC1jcqoQ-59" target="yooK8LwU4qN5jC1jcqoQ-112">
          <mxGeometry relative="1" as="geometry">
            <mxPoint x="520" y="50" as="targetPoint" />
          </mxGeometry>
        </mxCell>
        <mxCell id="yooK8LwU4qN5jC1jcqoQ-59" value="vendor" style="shape=umlActor;verticalLabelPosition=bottom;verticalAlign=top;html=1;outlineConnect=0;" vertex="1" parent="1">
          <mxGeometry x="362" y="20" width="30" height="60" as="geometry" />
        </mxCell>
        <mxCell id="yooK8LwU4qN5jC1jcqoQ-70" style="edgeStyle=orthogonalEdgeStyle;rounded=0;orthogonalLoop=1;jettySize=auto;html=1;entryX=1;entryY=0.5;entryDx=0;entryDy=0;" edge="1" parent="1" source="yooK8LwU4qN5jC1jcqoQ-60" target="yooK8LwU4qN5jC1jcqoQ-66">
          <mxGeometry relative="1" as="geometry" />
        </mxCell>
        <mxCell id="yooK8LwU4qN5jC1jcqoQ-60" value="Phản hồi lại RFX cho bên mua" style="rounded=1;whiteSpace=wrap;html=1;fillColor=#dae8fc;strokeColor=#6c8ebf;" vertex="1" parent="1">
          <mxGeometry x="-105" y="-60" width="120" height="60" as="geometry" />
        </mxCell>
        <mxCell id="yooK8LwU4qN5jC1jcqoQ-66" value="TIếp nhận phản hồi của vendor" style="rounded=1;whiteSpace=wrap;html=1;fillColor=#dae8fc;strokeColor=#6c8ebf;" vertex="1" parent="1">
          <mxGeometry x="-290" y="-60" width="120" height="60" as="geometry" />
        </mxCell>
        <mxCell id="yooK8LwU4qN5jC1jcqoQ-100" style="edgeStyle=orthogonalEdgeStyle;rounded=0;orthogonalLoop=1;jettySize=auto;html=1;entryX=0.461;entryY=0.025;entryDx=0;entryDy=0;entryPerimeter=0;" edge="1" parent="1" source="yooK8LwU4qN5jC1jcqoQ-72" target="yooK8LwU4qN5jC1jcqoQ-92">
          <mxGeometry relative="1" as="geometry">
            <mxPoint x="450" y="100" as="targetPoint" />
          </mxGeometry>
        </mxCell>
        <mxCell id="yooK8LwU4qN5jC1jcqoQ-72" value="Sau khi chọn được vendor giám đốc mua hàng sẽ tạo PO" style="rounded=1;whiteSpace=wrap;html=1;fillColor=#dae8fc;strokeColor=#6c8ebf;" vertex="1" parent="1">
          <mxGeometry x="-290" y="-170" width="120" height="60" as="geometry" />
        </mxCell>
        <mxCell id="yooK8LwU4qN5jC1jcqoQ-75" value="1" style="text;html=1;align=center;verticalAlign=middle;resizable=0;points=[];autosize=1;strokeColor=none;fillColor=none;" vertex="1" parent="1">
          <mxGeometry x="-735" y="168" width="30" height="30" as="geometry" />
        </mxCell>
        <mxCell id="yooK8LwU4qN5jC1jcqoQ-76" value="2" style="text;html=1;align=center;verticalAlign=middle;resizable=0;points=[];autosize=1;strokeColor=none;fillColor=none;" vertex="1" parent="1">
          <mxGeometry x="-515" y="58" width="30" height="30" as="geometry" />
        </mxCell>
        <mxCell id="yooK8LwU4qN5jC1jcqoQ-77" value="3" style="text;html=1;align=center;verticalAlign=middle;resizable=0;points=[];autosize=1;strokeColor=none;fillColor=none;" vertex="1" parent="1">
          <mxGeometry x="-385" y="128" width="30" height="30" as="geometry" />
        </mxCell>
        <mxCell id="yooK8LwU4qN5jC1jcqoQ-78" value="4" style="text;html=1;align=center;verticalAlign=middle;resizable=0;points=[];autosize=1;strokeColor=none;fillColor=none;" vertex="1" parent="1">
          <mxGeometry x="-455" y="268" width="30" height="30" as="geometry" />
        </mxCell>
        <mxCell id="yooK8LwU4qN5jC1jcqoQ-79" value="5" style="text;html=1;align=center;verticalAlign=middle;resizable=0;points=[];autosize=1;strokeColor=none;fillColor=none;" vertex="1" parent="1">
          <mxGeometry x="-615" y="288" width="30" height="30" as="geometry" />
        </mxCell>
        <mxCell id="yooK8LwU4qN5jC1jcqoQ-80" value="6" style="text;html=1;align=center;verticalAlign=middle;resizable=0;points=[];autosize=1;strokeColor=none;fillColor=none;" vertex="1" parent="1">
          <mxGeometry x="-325" y="168" width="30" height="30" as="geometry" />
        </mxCell>
        <mxCell id="yooK8LwU4qN5jC1jcqoQ-81" value="7.1" style="text;html=1;align=center;verticalAlign=middle;resizable=0;points=[];autosize=1;strokeColor=none;fillColor=none;" vertex="1" parent="1">
          <mxGeometry x="-35" y="160" width="40" height="30" as="geometry" />
        </mxCell>
        <mxCell id="yooK8LwU4qN5jC1jcqoQ-82" value="8.1" style="text;html=1;align=center;verticalAlign=middle;resizable=0;points=[];autosize=1;strokeColor=none;fillColor=none;" vertex="1" parent="1">
          <mxGeometry x="-260" y="35" width="40" height="30" as="geometry" />
        </mxCell>
        <mxCell id="yooK8LwU4qN5jC1jcqoQ-83" value="9.1" style="text;html=1;align=center;verticalAlign=middle;resizable=0;points=[];autosize=1;strokeColor=none;fillColor=none;" vertex="1" parent="1">
          <mxGeometry x="100" y="28" width="40" height="30" as="geometry" />
        </mxCell>
        <mxCell id="yooK8LwU4qN5jC1jcqoQ-84" value="10.1" style="text;html=1;align=center;verticalAlign=middle;resizable=0;points=[];autosize=1;strokeColor=none;fillColor=none;" vertex="1" parent="1">
          <mxGeometry x="105" y="-72" width="50" height="30" as="geometry" />
        </mxCell>
        <mxCell id="yooK8LwU4qN5jC1jcqoQ-85" value="11.1" style="text;html=1;align=center;verticalAlign=middle;resizable=0;points=[];autosize=1;strokeColor=none;fillColor=none;" vertex="1" parent="1">
          <mxGeometry x="-155" y="-62" width="50" height="30" as="geometry" />
        </mxCell>
        <mxCell id="yooK8LwU4qN5jC1jcqoQ-87" value="12.1" style="text;html=1;align=center;verticalAlign=middle;resizable=0;points=[];autosize=1;strokeColor=none;fillColor=none;" vertex="1" parent="1">
          <mxGeometry x="-345" y="-60" width="50" height="30" as="geometry" />
        </mxCell>
        <mxCell id="yooK8LwU4qN5jC1jcqoQ-89" value="13.1" style="text;html=1;align=center;verticalAlign=middle;resizable=0;points=[];autosize=1;strokeColor=none;fillColor=none;" vertex="1" parent="1">
          <mxGeometry x="-350" y="-170" width="50" height="30" as="geometry" />
        </mxCell>
        <mxCell id="yooK8LwU4qN5jC1jcqoQ-90" value="Purchase Order (PO): Đơn đặt hàng" style="text;html=1;align=center;verticalAlign=middle;resizable=0;points=[];autosize=1;strokeColor=none;fillColor=none;" vertex="1" parent="1">
          <mxGeometry x="-300" y="-271" width="220" height="30" as="geometry" />
        </mxCell>
        <mxCell id="yooK8LwU4qN5jC1jcqoQ-91" value="Purchase Requisitioon: PR: Yêu cầu mua hàng" style="text;html=1;align=center;verticalAlign=middle;resizable=0;points=[];autosize=1;strokeColor=none;fillColor=none;" vertex="1" parent="1">
          <mxGeometry x="-295" y="-246" width="270" height="30" as="geometry" />
        </mxCell>
        <mxCell id="yooK8LwU4qN5jC1jcqoQ-110" style="edgeStyle=orthogonalEdgeStyle;rounded=0;orthogonalLoop=1;jettySize=auto;html=1;" edge="1" parent="1" source="yooK8LwU4qN5jC1jcqoQ-92">
          <mxGeometry relative="1" as="geometry">
            <mxPoint x="350" y="90" as="targetPoint" />
          </mxGeometry>
        </mxCell>
        <mxCell id="yooK8LwU4qN5jC1jcqoQ-92" value="Tạo và ký hợp đồng&amp;nbsp;&lt;div&gt;Gửi hợp đồng cho vendor để ký kết(hợp đồng điện tử hoặc truyền thống)&lt;/div&gt;" style="rounded=1;whiteSpace=wrap;html=1;fillColor=#dae8fc;strokeColor=#6c8ebf;" vertex="1" parent="1">
          <mxGeometry x="135" y="113" width="154" height="87" as="geometry" />
        </mxCell>
        <mxCell id="yooK8LwU4qN5jC1jcqoQ-99" style="edgeStyle=orthogonalEdgeStyle;rounded=0;orthogonalLoop=1;jettySize=auto;html=1;entryX=0.461;entryY=0.975;entryDx=0;entryDy=0;entryPerimeter=0;" edge="1" parent="1" source="yooK8LwU4qN5jC1jcqoQ-41" target="yooK8LwU4qN5jC1jcqoQ-92">
          <mxGeometry relative="1" as="geometry" />
        </mxCell>
        <mxCell id="yooK8LwU4qN5jC1jcqoQ-101" value="14.1" style="text;html=1;align=center;verticalAlign=middle;resizable=0;points=[];autosize=1;strokeColor=none;fillColor=none;" vertex="1" parent="1">
          <mxGeometry x="15" y="-172" width="50" height="30" as="geometry" />
        </mxCell>
        <mxCell id="yooK8LwU4qN5jC1jcqoQ-102" value="7.2" style="text;html=1;align=center;verticalAlign=middle;resizable=0;points=[];autosize=1;strokeColor=none;fillColor=none;" vertex="1" parent="1">
          <mxGeometry x="-35" y="249" width="40" height="30" as="geometry" />
        </mxCell>
        <mxCell id="yooK8LwU4qN5jC1jcqoQ-104" value="15.1" style="text;html=1;align=center;verticalAlign=middle;resizable=0;points=[];autosize=1;strokeColor=none;fillColor=none;" vertex="1" parent="1">
          <mxGeometry x="200" y="-102" width="50" height="30" as="geometry" />
        </mxCell>
        <mxCell id="yooK8LwU4qN5jC1jcqoQ-105" value="8.2" style="text;html=1;align=center;verticalAlign=middle;resizable=0;points=[];autosize=1;strokeColor=none;fillColor=none;" vertex="1" parent="1">
          <mxGeometry x="140" y="318" width="40" height="30" as="geometry" />
        </mxCell>
        <mxCell id="yooK8LwU4qN5jC1jcqoQ-114" style="edgeStyle=orthogonalEdgeStyle;rounded=0;orthogonalLoop=1;jettySize=auto;html=1;" edge="1" parent="1" source="yooK8LwU4qN5jC1jcqoQ-112">
          <mxGeometry relative="1" as="geometry">
            <mxPoint x="660" y="50" as="targetPoint" />
          </mxGeometry>
        </mxCell>
        <mxCell id="yooK8LwU4qN5jC1jcqoQ-112" value="Vendor gửi hàng theo đúng hợp đồng&amp;nbsp;" style="rounded=1;whiteSpace=wrap;html=1;fillColor=#dae8fc;strokeColor=#6c8ebf;" vertex="1" parent="1">
          <mxGeometry x="460" y="10" width="120" height="80" as="geometry" />
        </mxCell>
        <mxCell id="yooK8LwU4qN5jC1jcqoQ-119" style="edgeStyle=orthogonalEdgeStyle;rounded=0;orthogonalLoop=1;jettySize=auto;html=1;" edge="1" parent="1" source="yooK8LwU4qN5jC1jcqoQ-113" target="yooK8LwU4qN5jC1jcqoQ-116">
          <mxGeometry relative="1" as="geometry" />
        </mxCell>
        <mxCell id="yooK8LwU4qN5jC1jcqoQ-113" value="Người phụ trách kiểm tra" style="shape=umlActor;verticalLabelPosition=bottom;verticalAlign=top;html=1;outlineConnect=0;" vertex="1" parent="1">
          <mxGeometry x="660" y="20" width="30" height="60" as="geometry" />
        </mxCell>
        <mxCell id="yooK8LwU4qN5jC1jcqoQ-118" value="" style="edgeStyle=orthogonalEdgeStyle;rounded=0;orthogonalLoop=1;jettySize=auto;html=1;" edge="1" parent="1" source="yooK8LwU4qN5jC1jcqoQ-116" target="yooK8LwU4qN5jC1jcqoQ-117">
          <mxGeometry relative="1" as="geometry" />
        </mxCell>
        <mxCell id="yooK8LwU4qN5jC1jcqoQ-212" style="edgeStyle=orthogonalEdgeStyle;rounded=0;orthogonalLoop=1;jettySize=auto;html=1;entryX=0.5;entryY=1;entryDx=0;entryDy=0;" edge="1" parent="1" source="yooK8LwU4qN5jC1jcqoQ-116" target="yooK8LwU4qN5jC1jcqoQ-211">
          <mxGeometry relative="1" as="geometry" />
        </mxCell>
        <mxCell id="yooK8LwU4qN5jC1jcqoQ-116" value="Tiếp nhận hàng hóa và kiếm tra" style="rounded=1;whiteSpace=wrap;html=1;fillColor=#dae8fc;strokeColor=#6c8ebf;" vertex="1" parent="1">
          <mxGeometry x="750" y="10" width="160" height="80" as="geometry" />
        </mxCell>
        <mxCell id="yooK8LwU4qN5jC1jcqoQ-117" value="Đánh giá vendor" style="whiteSpace=wrap;html=1;rounded=1;fillColor=#dae8fc;strokeColor=#6c8ebf;" vertex="1" parent="1">
          <mxGeometry x="1000" y="20" width="120" height="60" as="geometry" />
        </mxCell>
        <mxCell id="yooK8LwU4qN5jC1jcqoQ-123" value="các hành động của user trên hệ thống&amp;nbsp;" style="text;html=1;align=center;verticalAlign=middle;resizable=0;points=[];autosize=1;strokeColor=none;fillColor=none;" vertex="1" parent="1">
          <mxGeometry x="-670" y="-241" width="230" height="30" as="geometry" />
        </mxCell>
        <mxCell id="yooK8LwU4qN5jC1jcqoQ-124" value="" style="ellipse;whiteSpace=wrap;html=1;aspect=fixed;fillColor=#dae8fc;strokeColor=#6c8ebf;" vertex="1" parent="1">
          <mxGeometry x="-703.5" y="-245.25" width="38.5" height="38.5" as="geometry" />
        </mxCell>
        <mxCell id="yooK8LwU4qN5jC1jcqoQ-125" value="" style="ellipse;whiteSpace=wrap;html=1;aspect=fixed;fillColor=#fff2cc;strokeColor=#d6b656;" vertex="1" parent="1">
          <mxGeometry x="-705" y="-200" width="38.5" height="38.5" as="geometry" />
        </mxCell>
        <mxCell id="yooK8LwU4qN5jC1jcqoQ-126" value="các phần logic rẽ nhánh" style="text;html=1;align=center;verticalAlign=middle;resizable=0;points=[];autosize=1;strokeColor=none;fillColor=none;" vertex="1" parent="1">
          <mxGeometry x="-666.5" y="-195.75" width="150" height="30" as="geometry" />
        </mxCell>
        <mxCell id="yooK8LwU4qN5jC1jcqoQ-127" value="" style="ellipse;whiteSpace=wrap;html=1;aspect=fixed;fillColor=#f8cecc;strokeColor=#b85450;" vertex="1" parent="1">
          <mxGeometry x="-706.25" y="-156" width="40" height="40" as="geometry" />
        </mxCell>
        <mxCell id="yooK8LwU4qN5jC1jcqoQ-128" value="hệ thông tự động" style="text;html=1;align=center;verticalAlign=middle;resizable=0;points=[];autosize=1;strokeColor=none;fillColor=none;" vertex="1" parent="1">
          <mxGeometry x="-660" y="-151" width="110" height="30" as="geometry" />
        </mxCell>
        <mxCell id="yooK8LwU4qN5jC1jcqoQ-129" style="edgeStyle=orthogonalEdgeStyle;rounded=0;orthogonalLoop=1;jettySize=auto;html=1;entryX=0;entryY=0.5;entryDx=0;entryDy=0;" edge="1" parent="1" source="yooK8LwU4qN5jC1jcqoQ-130" target="yooK8LwU4qN5jC1jcqoQ-131">
          <mxGeometry relative="1" as="geometry" />
        </mxCell>
        <mxCell id="yooK8LwU4qN5jC1jcqoQ-130" value="&lt;span data-teams=&quot;true&quot;&gt;구매요청자&amp;nbsp;&lt;/span&gt;" style="shape=umlActor;verticalLabelPosition=bottom;verticalAlign=top;html=1;outlineConnect=0;" vertex="1" parent="1">
          <mxGeometry x="-1080" y="1376" width="30" height="60" as="geometry" />
        </mxCell>
        <mxCell id="yooK8LwU4qN5jC1jcqoQ-131" value="&lt;span data-teams=&quot;true&quot;&gt;PR 생성&lt;/span&gt;" style="rounded=1;whiteSpace=wrap;html=1;fillColor=#dae8fc;strokeColor=#6c8ebf;" vertex="1" parent="1">
          <mxGeometry x="-962" y="1361" width="140" height="89" as="geometry" />
        </mxCell>
        <mxCell id="yooK8LwU4qN5jC1jcqoQ-132" style="edgeStyle=orthogonalEdgeStyle;rounded=0;orthogonalLoop=1;jettySize=auto;html=1;entryX=0;entryY=0.5;entryDx=0;entryDy=0;" edge="1" parent="1" target="yooK8LwU4qN5jC1jcqoQ-161">
          <mxGeometry relative="1" as="geometry">
            <mxPoint x="-672" y="1261" as="sourcePoint" />
          </mxGeometry>
        </mxCell>
        <mxCell id="yooK8LwU4qN5jC1jcqoQ-133" style="edgeStyle=orthogonalEdgeStyle;rounded=0;orthogonalLoop=1;jettySize=auto;html=1;entryX=0;entryY=0.5;entryDx=0;entryDy=0;" edge="1" parent="1" source="yooK8LwU4qN5jC1jcqoQ-135" target="yooK8LwU4qN5jC1jcqoQ-169">
          <mxGeometry relative="1" as="geometry" />
        </mxCell>
        <mxCell id="yooK8LwU4qN5jC1jcqoQ-134" style="edgeStyle=orthogonalEdgeStyle;rounded=0;orthogonalLoop=1;jettySize=auto;html=1;entryX=0;entryY=0.5;entryDx=0;entryDy=0;" edge="1" parent="1" source="yooK8LwU4qN5jC1jcqoQ-135" target="yooK8LwU4qN5jC1jcqoQ-171">
          <mxGeometry relative="1" as="geometry" />
        </mxCell>
        <mxCell id="yooK8LwU4qN5jC1jcqoQ-135" value="&lt;span data-teams=&quot;true&quot;&gt;구매담당자&amp;nbsp;&lt;/span&gt;" style="shape=umlActor;verticalLabelPosition=bottom;verticalAlign=top;html=1;outlineConnect=0;" vertex="1" parent="1">
          <mxGeometry x="-697" y="1221" width="30" height="60" as="geometry" />
        </mxCell>
        <mxCell id="yooK8LwU4qN5jC1jcqoQ-136" value="" style="endArrow=classic;html=1;rounded=0;" edge="1" parent="1">
          <mxGeometry width="50" height="50" relative="1" as="geometry">
            <mxPoint x="-882" y="1361" as="sourcePoint" />
            <mxPoint x="-702" y="1251" as="targetPoint" />
          </mxGeometry>
        </mxCell>
        <mxCell id="yooK8LwU4qN5jC1jcqoQ-137" value="request" style="edgeLabel;html=1;align=center;verticalAlign=middle;resizable=0;points=[];" vertex="1" connectable="0" parent="yooK8LwU4qN5jC1jcqoQ-136">
          <mxGeometry x="-0.1073" y="1" relative="1" as="geometry">
            <mxPoint as="offset" />
          </mxGeometry>
        </mxCell>
        <mxCell id="yooK8LwU4qN5jC1jcqoQ-138" style="edgeStyle=orthogonalEdgeStyle;rounded=0;orthogonalLoop=1;jettySize=auto;html=1;entryX=0.5;entryY=0;entryDx=0;entryDy=0;" edge="1" parent="1" source="yooK8LwU4qN5jC1jcqoQ-135" target="yooK8LwU4qN5jC1jcqoQ-142">
          <mxGeometry relative="1" as="geometry">
            <mxPoint x="-682" y="1351" as="targetPoint" />
          </mxGeometry>
        </mxCell>
        <mxCell id="yooK8LwU4qN5jC1jcqoQ-139" value="response" style="edgeLabel;html=1;align=center;verticalAlign=middle;resizable=0;points=[];" vertex="1" connectable="0" parent="yooK8LwU4qN5jC1jcqoQ-138">
          <mxGeometry x="0.0289" y="-1" relative="1" as="geometry">
            <mxPoint as="offset" />
          </mxGeometry>
        </mxCell>
        <mxCell id="yooK8LwU4qN5jC1jcqoQ-140" style="edgeStyle=orthogonalEdgeStyle;rounded=0;orthogonalLoop=1;jettySize=auto;html=1;entryX=0;entryY=0.5;entryDx=0;entryDy=0;" edge="1" parent="1" source="yooK8LwU4qN5jC1jcqoQ-142" target="yooK8LwU4qN5jC1jcqoQ-147">
          <mxGeometry relative="1" as="geometry">
            <mxPoint x="-512" y="1405.25" as="targetPoint" />
          </mxGeometry>
        </mxCell>
        <mxCell id="yooK8LwU4qN5jC1jcqoQ-141" style="edgeStyle=orthogonalEdgeStyle;rounded=0;orthogonalLoop=1;jettySize=auto;html=1;entryX=0.5;entryY=0;entryDx=0;entryDy=0;" edge="1" parent="1" source="yooK8LwU4qN5jC1jcqoQ-142" target="yooK8LwU4qN5jC1jcqoQ-151">
          <mxGeometry relative="1" as="geometry">
            <mxPoint x="-682" y="1521" as="targetPoint" />
          </mxGeometry>
        </mxCell>
        <mxCell id="yooK8LwU4qN5jC1jcqoQ-142" value="&lt;span data-teams=&quot;true&quot;&gt;PR 조회/확인 후 평가&lt;/span&gt;" style="rhombus;whiteSpace=wrap;html=1;fillColor=#fff2cc;strokeColor=#d6b656;" vertex="1" parent="1">
          <mxGeometry x="-747" y="1367.5" width="130" height="75.5" as="geometry" />
        </mxCell>
        <mxCell id="yooK8LwU4qN5jC1jcqoQ-143" value="Y" style="text;html=1;align=center;verticalAlign=middle;resizable=0;points=[];autosize=1;strokeColor=none;fillColor=none;" vertex="1" parent="1">
          <mxGeometry x="-587" y="1379" width="30" height="30" as="geometry" />
        </mxCell>
        <mxCell id="yooK8LwU4qN5jC1jcqoQ-144" value="N" style="text;html=1;align=center;verticalAlign=middle;resizable=0;points=[];autosize=1;strokeColor=none;fillColor=none;" vertex="1" parent="1">
          <mxGeometry x="-689" y="1464" width="30" height="30" as="geometry" />
        </mxCell>
        <mxCell id="yooK8LwU4qN5jC1jcqoQ-145" style="edgeStyle=orthogonalEdgeStyle;rounded=0;orthogonalLoop=1;jettySize=auto;html=1;" edge="1" parent="1">
          <mxGeometry relative="1" as="geometry">
            <mxPoint x="-317" y="1511" as="targetPoint" />
            <mxPoint x="-417.29650519031156" y="1406.9166666666667" as="sourcePoint" />
          </mxGeometry>
        </mxCell>
        <mxCell id="yooK8LwU4qN5jC1jcqoQ-146" style="edgeStyle=orthogonalEdgeStyle;rounded=0;orthogonalLoop=1;jettySize=auto;html=1;entryX=0.5;entryY=1;entryDx=0;entryDy=0;" edge="1" parent="1" source="yooK8LwU4qN5jC1jcqoQ-147" target="yooK8LwU4qN5jC1jcqoQ-161">
          <mxGeometry relative="1" as="geometry">
            <mxPoint x="-312" y="1349" as="targetPoint" />
          </mxGeometry>
        </mxCell>
        <mxCell id="yooK8LwU4qN5jC1jcqoQ-147" value="&lt;span data-teams=&quot;true&quot;&gt;PR=단가계약&lt;/span&gt;" style="rhombus;whiteSpace=wrap;html=1;fillColor=#fff2cc;strokeColor=#d6b656;" vertex="1" parent="1">
          <mxGeometry x="-537" y="1368.75" width="150" height="72.25" as="geometry" />
        </mxCell>
        <mxCell id="yooK8LwU4qN5jC1jcqoQ-148" value="Y" style="text;html=1;align=center;verticalAlign=middle;resizable=0;points=[];autosize=1;strokeColor=none;fillColor=none;" vertex="1" parent="1">
          <mxGeometry x="-351" y="1434" width="30" height="30" as="geometry" />
        </mxCell>
        <mxCell id="yooK8LwU4qN5jC1jcqoQ-149" value="N" style="text;html=1;align=center;verticalAlign=middle;resizable=0;points=[];autosize=1;strokeColor=none;fillColor=none;" vertex="1" parent="1">
          <mxGeometry x="-351" y="1338.75" width="30" height="30" as="geometry" />
        </mxCell>
        <mxCell id="yooK8LwU4qN5jC1jcqoQ-150" style="edgeStyle=orthogonalEdgeStyle;rounded=0;orthogonalLoop=1;jettySize=auto;html=1;exitX=0;exitY=0.5;exitDx=0;exitDy=0;entryX=1;entryY=0.5;entryDx=0;entryDy=0;" edge="1" parent="1" source="yooK8LwU4qN5jC1jcqoQ-151" target="yooK8LwU4qN5jC1jcqoQ-153">
          <mxGeometry relative="1" as="geometry" />
        </mxCell>
        <mxCell id="yooK8LwU4qN5jC1jcqoQ-151" value="&lt;span data-teams=&quot;true&quot;&gt;&amp;nbsp;사용자는 생성된 PR의 상태가 &quot;반려&quot; 또는 &quot;만료&quot;인 경우 해당 PR 수정 및 삭제 가능&lt;/span&gt;" style="rounded=1;whiteSpace=wrap;html=1;fillColor=#dae8fc;strokeColor=#6c8ebf;" vertex="1" parent="1">
          <mxGeometry x="-757" y="1536" width="150" height="80" as="geometry" />
        </mxCell>
        <mxCell id="yooK8LwU4qN5jC1jcqoQ-152" style="edgeStyle=orthogonalEdgeStyle;rounded=0;orthogonalLoop=1;jettySize=auto;html=1;entryX=0.5;entryY=1;entryDx=0;entryDy=0;" edge="1" parent="1" source="yooK8LwU4qN5jC1jcqoQ-153" target="yooK8LwU4qN5jC1jcqoQ-131">
          <mxGeometry relative="1" as="geometry" />
        </mxCell>
        <mxCell id="yooK8LwU4qN5jC1jcqoQ-153" value="&lt;span data-teams=&quot;true&quot;&gt;PR 재생성&lt;/span&gt;" style="rhombus;whiteSpace=wrap;html=1;fillColor=#fff2cc;strokeColor=#d6b656;" vertex="1" parent="1">
          <mxGeometry x="-947" y="1541" width="110" height="70" as="geometry" />
        </mxCell>
        <mxCell id="yooK8LwU4qN5jC1jcqoQ-154" value="Y" style="text;html=1;align=center;verticalAlign=middle;resizable=0;points=[];autosize=1;strokeColor=none;fillColor=none;" vertex="1" parent="1">
          <mxGeometry x="-942" y="1531" width="30" height="30" as="geometry" />
        </mxCell>
        <mxCell id="yooK8LwU4qN5jC1jcqoQ-155" value="&lt;span data-teams=&quot;true&quot;&gt;&lt;strong&gt;&lt;font style=&quot;font-size: 14px;&quot;&gt;단가계약품목: 단가 계약은 제품 가격이 사전에 승인된 요청 유형임&lt;/font&gt;&lt;/strong&gt;&lt;/span&gt;" style="text;html=1;align=center;verticalAlign=middle;resizable=0;points=[];autosize=1;strokeColor=none;fillColor=none;" vertex="1" parent="1">
          <mxGeometry x="-592" y="900" width="410" height="30" as="geometry" />
        </mxCell>
        <mxCell id="yooK8LwU4qN5jC1jcqoQ-156" value="&lt;span data-teams=&quot;true&quot;&gt;시스템 PO 자동으로 생성&lt;/span&gt;" style="ellipse;whiteSpace=wrap;html=1;fillColor=#f8cecc;strokeColor=#b85450;" vertex="1" parent="1">
          <mxGeometry x="-362" y="1511" width="90" height="80" as="geometry" />
        </mxCell>
        <mxCell id="yooK8LwU4qN5jC1jcqoQ-157" style="edgeStyle=orthogonalEdgeStyle;rounded=0;orthogonalLoop=1;jettySize=auto;html=1;exitX=0.5;exitY=0;exitDx=0;exitDy=0;exitPerimeter=0;entryX=1;entryY=0.75;entryDx=0;entryDy=0;" edge="1" parent="1" source="yooK8LwU4qN5jC1jcqoQ-158" target="yooK8LwU4qN5jC1jcqoQ-168">
          <mxGeometry relative="1" as="geometry">
            <mxPoint x="-252" y="1141" as="targetPoint" />
          </mxGeometry>
        </mxCell>
        <mxCell id="yooK8LwU4qN5jC1jcqoQ-158" value="vendor" style="shape=umlActor;verticalLabelPosition=bottom;verticalAlign=top;html=1;outlineConnect=0;" vertex="1" parent="1">
          <mxGeometry x="20" y="1221" width="30" height="60" as="geometry" />
        </mxCell>
        <mxCell id="yooK8LwU4qN5jC1jcqoQ-159" value="" style="endArrow=classic;html=1;rounded=0;exitX=1;exitY=0.5;exitDx=0;exitDy=0;" edge="1" parent="1" source="yooK8LwU4qN5jC1jcqoQ-161">
          <mxGeometry width="50" height="50" relative="1" as="geometry">
            <mxPoint x="-207" y="1332.6200000000001" as="sourcePoint" />
            <mxPoint x="18" y="1261" as="targetPoint" />
          </mxGeometry>
        </mxCell>
        <mxCell id="yooK8LwU4qN5jC1jcqoQ-160" value="Sent" style="edgeLabel;html=1;align=center;verticalAlign=middle;resizable=0;points=[];" vertex="1" connectable="0" parent="yooK8LwU4qN5jC1jcqoQ-159">
          <mxGeometry x="-0.177" relative="1" as="geometry">
            <mxPoint as="offset" />
          </mxGeometry>
        </mxCell>
        <mxCell id="yooK8LwU4qN5jC1jcqoQ-161" value="&lt;span data-teams=&quot;true&quot;&gt;RFX 생성&lt;/span&gt;" style="rounded=1;whiteSpace=wrap;html=1;fillColor=#dae8fc;strokeColor=#6c8ebf;" vertex="1" parent="1">
          <mxGeometry x="-377" y="1231" width="120" height="60" as="geometry" />
        </mxCell>
        <mxCell id="yooK8LwU4qN5jC1jcqoQ-162" style="edgeStyle=orthogonalEdgeStyle;rounded=0;orthogonalLoop=1;jettySize=auto;html=1;entryX=1;entryY=0.5;entryDx=0;entryDy=0;exitX=0.5;exitY=0;exitDx=0;exitDy=0;exitPerimeter=0;" edge="1" parent="1" source="yooK8LwU4qN5jC1jcqoQ-163" target="yooK8LwU4qN5jC1jcqoQ-168">
          <mxGeometry relative="1" as="geometry" />
        </mxCell>
        <mxCell id="yooK8LwU4qN5jC1jcqoQ-163" value="vendor" style="shape=umlActor;verticalLabelPosition=bottom;verticalAlign=top;html=1;outlineConnect=0;" vertex="1" parent="1">
          <mxGeometry x="50" y="1201" width="30" height="60" as="geometry" />
        </mxCell>
        <mxCell id="yooK8LwU4qN5jC1jcqoQ-164" style="edgeStyle=orthogonalEdgeStyle;rounded=0;orthogonalLoop=1;jettySize=auto;html=1;entryX=1;entryY=0.25;entryDx=0;entryDy=0;exitX=0.5;exitY=0;exitDx=0;exitDy=0;exitPerimeter=0;" edge="1" parent="1" source="yooK8LwU4qN5jC1jcqoQ-166" target="yooK8LwU4qN5jC1jcqoQ-168">
          <mxGeometry relative="1" as="geometry" />
        </mxCell>
        <mxCell id="yooK8LwU4qN5jC1jcqoQ-165" style="edgeStyle=orthogonalEdgeStyle;rounded=0;orthogonalLoop=1;jettySize=auto;html=1;" edge="1" parent="1" source="yooK8LwU4qN5jC1jcqoQ-166" target="yooK8LwU4qN5jC1jcqoQ-195">
          <mxGeometry relative="1" as="geometry">
            <mxPoint x="238" y="1251" as="targetPoint" />
          </mxGeometry>
        </mxCell>
        <mxCell id="yooK8LwU4qN5jC1jcqoQ-166" value="vendor" style="shape=umlActor;verticalLabelPosition=bottom;verticalAlign=top;html=1;outlineConnect=0;" vertex="1" parent="1">
          <mxGeometry x="80" y="1221" width="30" height="60" as="geometry" />
        </mxCell>
        <mxCell id="yooK8LwU4qN5jC1jcqoQ-167" style="edgeStyle=orthogonalEdgeStyle;rounded=0;orthogonalLoop=1;jettySize=auto;html=1;entryX=1;entryY=0.5;entryDx=0;entryDy=0;" edge="1" parent="1" source="yooK8LwU4qN5jC1jcqoQ-168" target="yooK8LwU4qN5jC1jcqoQ-169">
          <mxGeometry relative="1" as="geometry" />
        </mxCell>
        <mxCell id="yooK8LwU4qN5jC1jcqoQ-168" value="&lt;span data-teams=&quot;true&quot;&gt;구매담당자에게 RFX에 대한 응답을 반환&lt;/span&gt;" style="rounded=1;whiteSpace=wrap;html=1;fillColor=#dae8fc;strokeColor=#6c8ebf;" vertex="1" parent="1">
          <mxGeometry x="-387" y="1141" width="120" height="60" as="geometry" />
        </mxCell>
        <mxCell id="yooK8LwU4qN5jC1jcqoQ-169" value="&lt;span data-teams=&quot;true&quot;&gt;공급업체의 응답 수령&lt;/span&gt;" style="rounded=1;whiteSpace=wrap;html=1;fillColor=#dae8fc;strokeColor=#6c8ebf;" vertex="1" parent="1">
          <mxGeometry x="-572" y="1141" width="120" height="60" as="geometry" />
        </mxCell>
        <mxCell id="yooK8LwU4qN5jC1jcqoQ-170" style="edgeStyle=orthogonalEdgeStyle;rounded=0;orthogonalLoop=1;jettySize=auto;html=1;entryX=0.461;entryY=0.025;entryDx=0;entryDy=0;entryPerimeter=0;" edge="1" parent="1" source="yooK8LwU4qN5jC1jcqoQ-171" target="yooK8LwU4qN5jC1jcqoQ-188">
          <mxGeometry relative="1" as="geometry">
            <mxPoint x="168" y="1301" as="targetPoint" />
          </mxGeometry>
        </mxCell>
        <mxCell id="yooK8LwU4qN5jC1jcqoQ-171" value="&lt;span data-teams=&quot;true&quot;&gt;공급업체를 선택한 후, 구매 담당자가 PO 생성&lt;/span&gt;" style="rounded=1;whiteSpace=wrap;html=1;fillColor=#dae8fc;strokeColor=#6c8ebf;" vertex="1" parent="1">
          <mxGeometry x="-572" y="1031" width="120" height="60" as="geometry" />
        </mxCell>
        <mxCell id="yooK8LwU4qN5jC1jcqoQ-172" value="1" style="text;html=1;align=center;verticalAlign=middle;resizable=0;points=[];autosize=1;strokeColor=none;fillColor=none;" vertex="1" parent="1">
          <mxGeometry x="-1017" y="1369" width="30" height="30" as="geometry" />
        </mxCell>
        <mxCell id="yooK8LwU4qN5jC1jcqoQ-173" value="2" style="text;html=1;align=center;verticalAlign=middle;resizable=0;points=[];autosize=1;strokeColor=none;fillColor=none;" vertex="1" parent="1">
          <mxGeometry x="-797" y="1259" width="30" height="30" as="geometry" />
        </mxCell>
        <mxCell id="yooK8LwU4qN5jC1jcqoQ-174" value="3" style="text;html=1;align=center;verticalAlign=middle;resizable=0;points=[];autosize=1;strokeColor=none;fillColor=none;" vertex="1" parent="1">
          <mxGeometry x="-667" y="1329" width="30" height="30" as="geometry" />
        </mxCell>
        <mxCell id="yooK8LwU4qN5jC1jcqoQ-175" value="4" style="text;html=1;align=center;verticalAlign=middle;resizable=0;points=[];autosize=1;strokeColor=none;fillColor=none;" vertex="1" parent="1">
          <mxGeometry x="-737" y="1469" width="30" height="30" as="geometry" />
        </mxCell>
        <mxCell id="yooK8LwU4qN5jC1jcqoQ-176" value="5" style="text;html=1;align=center;verticalAlign=middle;resizable=0;points=[];autosize=1;strokeColor=none;fillColor=none;" vertex="1" parent="1">
          <mxGeometry x="-897" y="1489" width="30" height="30" as="geometry" />
        </mxCell>
        <mxCell id="yooK8LwU4qN5jC1jcqoQ-177" value="6" style="text;html=1;align=center;verticalAlign=middle;resizable=0;points=[];autosize=1;strokeColor=none;fillColor=none;" vertex="1" parent="1">
          <mxGeometry x="-607" y="1369" width="30" height="30" as="geometry" />
        </mxCell>
        <mxCell id="yooK8LwU4qN5jC1jcqoQ-178" value="7.1" style="text;html=1;align=center;verticalAlign=middle;resizable=0;points=[];autosize=1;strokeColor=none;fillColor=none;" vertex="1" parent="1">
          <mxGeometry x="-317" y="1361" width="40" height="30" as="geometry" />
        </mxCell>
        <mxCell id="yooK8LwU4qN5jC1jcqoQ-179" value="8.1" style="text;html=1;align=center;verticalAlign=middle;resizable=0;points=[];autosize=1;strokeColor=none;fillColor=none;" vertex="1" parent="1">
          <mxGeometry x="-542" y="1236" width="40" height="30" as="geometry" />
        </mxCell>
        <mxCell id="yooK8LwU4qN5jC1jcqoQ-180" value="9.1" style="text;html=1;align=center;verticalAlign=middle;resizable=0;points=[];autosize=1;strokeColor=none;fillColor=none;" vertex="1" parent="1">
          <mxGeometry x="-182" y="1229" width="40" height="30" as="geometry" />
        </mxCell>
        <mxCell id="yooK8LwU4qN5jC1jcqoQ-181" value="10.1" style="text;html=1;align=center;verticalAlign=middle;resizable=0;points=[];autosize=1;strokeColor=none;fillColor=none;" vertex="1" parent="1">
          <mxGeometry x="-177" y="1129" width="50" height="30" as="geometry" />
        </mxCell>
        <mxCell id="yooK8LwU4qN5jC1jcqoQ-182" value="11.1" style="text;html=1;align=center;verticalAlign=middle;resizable=0;points=[];autosize=1;strokeColor=none;fillColor=none;" vertex="1" parent="1">
          <mxGeometry x="-437" y="1139" width="50" height="30" as="geometry" />
        </mxCell>
        <mxCell id="yooK8LwU4qN5jC1jcqoQ-183" value="12.1" style="text;html=1;align=center;verticalAlign=middle;resizable=0;points=[];autosize=1;strokeColor=none;fillColor=none;" vertex="1" parent="1">
          <mxGeometry x="-627" y="1141" width="50" height="30" as="geometry" />
        </mxCell>
        <mxCell id="yooK8LwU4qN5jC1jcqoQ-184" value="13.1" style="text;html=1;align=center;verticalAlign=middle;resizable=0;points=[];autosize=1;strokeColor=none;fillColor=none;" vertex="1" parent="1">
          <mxGeometry x="-632" y="1031" width="50" height="30" as="geometry" />
        </mxCell>
        <mxCell id="yooK8LwU4qN5jC1jcqoQ-185" value="&lt;span data-teams=&quot;true&quot;&gt;&lt;strong&gt;&lt;font style=&quot;font-size: 14px;&quot;&gt;Purchase Order (PO): 구매요청서&lt;/font&gt;&lt;/strong&gt;&lt;/span&gt;" style="text;html=1;align=center;verticalAlign=middle;resizable=0;points=[];autosize=1;strokeColor=none;fillColor=none;" vertex="1" parent="1">
          <mxGeometry x="-587" y="930" width="230" height="30" as="geometry" />
        </mxCell>
        <mxCell id="yooK8LwU4qN5jC1jcqoQ-186" value="&lt;span data-teams=&quot;true&quot;&gt;&lt;strong&gt;&lt;font style=&quot;font-size: 14px;&quot;&gt;Purchase Requisition (PR): 구매요청&lt;/font&gt;&lt;/strong&gt;&lt;/span&gt;" style="text;html=1;align=center;verticalAlign=middle;resizable=0;points=[];autosize=1;strokeColor=none;fillColor=none;" vertex="1" parent="1">
          <mxGeometry x="-590" y="955.75" width="260" height="30" as="geometry" />
        </mxCell>
        <mxCell id="yooK8LwU4qN5jC1jcqoQ-187" style="edgeStyle=orthogonalEdgeStyle;rounded=0;orthogonalLoop=1;jettySize=auto;html=1;" edge="1" parent="1" source="yooK8LwU4qN5jC1jcqoQ-188">
          <mxGeometry relative="1" as="geometry">
            <mxPoint x="68" y="1291" as="targetPoint" />
          </mxGeometry>
        </mxCell>
        <mxCell id="yooK8LwU4qN5jC1jcqoQ-188" value="&lt;span data-teams=&quot;true&quot;&gt;계약 생성 및 서명&lt;/span&gt;&lt;div&gt;&lt;span data-teams=&quot;true&quot;&gt;&lt;span data-teams=&quot;true&quot;&gt;공급업체에&amp;nbsp;서명&amp;nbsp;요청 (전자&amp;nbsp;계약&amp;nbsp;및&amp;nbsp;전통적인&amp;nbsp;계약&amp;nbsp;포함)&lt;/span&gt;&lt;/span&gt;&lt;/div&gt;" style="rounded=1;whiteSpace=wrap;html=1;fillColor=#dae8fc;strokeColor=#6c8ebf;" vertex="1" parent="1">
          <mxGeometry x="-147" y="1314" width="154" height="87" as="geometry" />
        </mxCell>
        <mxCell id="yooK8LwU4qN5jC1jcqoQ-189" style="edgeStyle=orthogonalEdgeStyle;rounded=0;orthogonalLoop=1;jettySize=auto;html=1;entryX=0.461;entryY=0.975;entryDx=0;entryDy=0;entryPerimeter=0;" edge="1" parent="1" source="yooK8LwU4qN5jC1jcqoQ-156" target="yooK8LwU4qN5jC1jcqoQ-188">
          <mxGeometry relative="1" as="geometry" />
        </mxCell>
        <mxCell id="yooK8LwU4qN5jC1jcqoQ-190" value="14.1" style="text;html=1;align=center;verticalAlign=middle;resizable=0;points=[];autosize=1;strokeColor=none;fillColor=none;" vertex="1" parent="1">
          <mxGeometry x="-267" y="1029" width="50" height="30" as="geometry" />
        </mxCell>
        <mxCell id="yooK8LwU4qN5jC1jcqoQ-191" value="7.2" style="text;html=1;align=center;verticalAlign=middle;resizable=0;points=[];autosize=1;strokeColor=none;fillColor=none;" vertex="1" parent="1">
          <mxGeometry x="-317" y="1450" width="40" height="30" as="geometry" />
        </mxCell>
        <mxCell id="yooK8LwU4qN5jC1jcqoQ-192" value="15.1" style="text;html=1;align=center;verticalAlign=middle;resizable=0;points=[];autosize=1;strokeColor=none;fillColor=none;" vertex="1" parent="1">
          <mxGeometry x="-82" y="1099" width="50" height="30" as="geometry" />
        </mxCell>
        <mxCell id="yooK8LwU4qN5jC1jcqoQ-193" value="8.2" style="text;html=1;align=center;verticalAlign=middle;resizable=0;points=[];autosize=1;strokeColor=none;fillColor=none;" vertex="1" parent="1">
          <mxGeometry x="-142" y="1519" width="40" height="30" as="geometry" />
        </mxCell>
        <mxCell id="yooK8LwU4qN5jC1jcqoQ-194" style="edgeStyle=orthogonalEdgeStyle;rounded=0;orthogonalLoop=1;jettySize=auto;html=1;" edge="1" parent="1" source="yooK8LwU4qN5jC1jcqoQ-195">
          <mxGeometry relative="1" as="geometry">
            <mxPoint x="378" y="1251" as="targetPoint" />
          </mxGeometry>
        </mxCell>
        <mxCell id="yooK8LwU4qN5jC1jcqoQ-195" value="&lt;span data-teams=&quot;true&quot;&gt;공급업체는 계약서에 맞게 제품을 배송&lt;/span&gt;" style="rounded=1;whiteSpace=wrap;html=1;fillColor=#dae8fc;strokeColor=#6c8ebf;" vertex="1" parent="1">
          <mxGeometry x="178" y="1211" width="120" height="80" as="geometry" />
        </mxCell>
        <mxCell id="yooK8LwU4qN5jC1jcqoQ-196" style="edgeStyle=orthogonalEdgeStyle;rounded=0;orthogonalLoop=1;jettySize=auto;html=1;" edge="1" parent="1" source="yooK8LwU4qN5jC1jcqoQ-197" target="yooK8LwU4qN5jC1jcqoQ-199">
          <mxGeometry relative="1" as="geometry" />
        </mxCell>
        <mxCell id="yooK8LwU4qN5jC1jcqoQ-197" value="&lt;span data-teams=&quot;true&quot;&gt;&amp;nbsp;담당자 검사 수행&lt;/span&gt;" style="shape=umlActor;verticalLabelPosition=bottom;verticalAlign=top;html=1;outlineConnect=0;" vertex="1" parent="1">
          <mxGeometry x="378" y="1221" width="30" height="60" as="geometry" />
        </mxCell>
        <mxCell id="yooK8LwU4qN5jC1jcqoQ-198" value="" style="edgeStyle=orthogonalEdgeStyle;rounded=0;orthogonalLoop=1;jettySize=auto;html=1;" edge="1" parent="1" source="yooK8LwU4qN5jC1jcqoQ-199" target="yooK8LwU4qN5jC1jcqoQ-200">
          <mxGeometry relative="1" as="geometry" />
        </mxCell>
        <mxCell id="yooK8LwU4qN5jC1jcqoQ-199" value="&lt;span data-teams=&quot;true&quot;&gt;품목을 수령하고 검사를 진행한 후, 품질이 기준에 미치지 않거나 수량이 부족하면 공급업체에게 재검사 요청.&lt;/span&gt;" style="rounded=1;whiteSpace=wrap;html=1;fillColor=#dae8fc;strokeColor=#6c8ebf;" vertex="1" parent="1">
          <mxGeometry x="468" y="1211" width="160" height="80" as="geometry" />
        </mxCell>
        <mxCell id="yooK8LwU4qN5jC1jcqoQ-200" value="&lt;span data-teams=&quot;true&quot;&gt;공급업체 평가&lt;/span&gt;" style="whiteSpace=wrap;html=1;rounded=1;fillColor=#dae8fc;strokeColor=#6c8ebf;" vertex="1" parent="1">
          <mxGeometry x="718" y="1221" width="120" height="60" as="geometry" />
        </mxCell>
        <mxCell id="yooK8LwU4qN5jC1jcqoQ-201" value="&lt;span data-teams=&quot;true&quot;&gt;사용자&lt;/span&gt;" style="text;html=1;align=center;verticalAlign=middle;resizable=0;points=[];autosize=1;strokeColor=none;fillColor=none;" vertex="1" parent="1">
          <mxGeometry x="-948.5" y="960" width="60" height="30" as="geometry" />
        </mxCell>
        <mxCell id="yooK8LwU4qN5jC1jcqoQ-202" value="" style="ellipse;whiteSpace=wrap;html=1;aspect=fixed;fillColor=#dae8fc;strokeColor=#6c8ebf;" vertex="1" parent="1">
          <mxGeometry x="-985.5" y="955.75" width="38.5" height="38.5" as="geometry" />
        </mxCell>
        <mxCell id="yooK8LwU4qN5jC1jcqoQ-203" value="" style="ellipse;whiteSpace=wrap;html=1;aspect=fixed;fillColor=#fff2cc;strokeColor=#d6b656;" vertex="1" parent="1">
          <mxGeometry x="-987" y="1001" width="38.5" height="38.5" as="geometry" />
        </mxCell>
        <mxCell id="yooK8LwU4qN5jC1jcqoQ-204" value="&lt;span data-teams=&quot;true&quot;&gt;조건 분기 로직 (Branching logic)&lt;/span&gt;" style="text;html=1;align=center;verticalAlign=middle;resizable=0;points=[];autosize=1;strokeColor=none;fillColor=none;" vertex="1" parent="1">
          <mxGeometry x="-948.25" y="1005.25" width="190" height="30" as="geometry" />
        </mxCell>
        <mxCell id="yooK8LwU4qN5jC1jcqoQ-205" value="" style="ellipse;whiteSpace=wrap;html=1;aspect=fixed;fillColor=#f8cecc;strokeColor=#b85450;" vertex="1" parent="1">
          <mxGeometry x="-988.25" y="1045" width="40" height="40" as="geometry" />
        </mxCell>
        <mxCell id="yooK8LwU4qN5jC1jcqoQ-206" value="&lt;span data-teams=&quot;true&quot;&gt;&amp;nbsp;시스템&amp;nbsp;&lt;/span&gt;" style="text;html=1;align=center;verticalAlign=middle;resizable=0;points=[];autosize=1;strokeColor=none;fillColor=none;" vertex="1" parent="1">
          <mxGeometry x="-947" y="1050" width="60" height="30" as="geometry" />
        </mxCell>
        <mxCell id="yooK8LwU4qN5jC1jcqoQ-207" value="TIếp nhận hàng hóa và kiểm tra nếu không đạt tiêu chuẩn và không đủ số lượng sẽ báo lại cho vendor kiểm tra lại&amp;nbsp;" style="rounded=1;whiteSpace=wrap;html=1;fillColor=#dae8fc;strokeColor=#6c8ebf;" vertex="1" parent="1">
          <mxGeometry x="1030" y="-296" width="160" height="80" as="geometry" />
        </mxCell>
        <mxCell id="yooK8LwU4qN5jC1jcqoQ-211" value="không đúng hợp đồng" style="rhombus;whiteSpace=wrap;html=1;" vertex="1" parent="1">
          <mxGeometry x="760" y="-130" width="140" height="80" as="geometry" />
        </mxCell>
      </root>
    </mxGraphModel>
  </diagram>
</mxfile>
